<?xml version="1.0" encoding="utf-8"?>
<!-- Generator: Adobe Illustrator 24.1.0, SVG Export Plug-In . SVG Version: 6.00 Build 0)  -->
<svg version="1.2" baseProfile="tiny-ps"
	 id="svg22" xmlns:cc="http://creativecommons.org/ns#" xmlns:dc="http://purl.org/dc/elements/1.1/" xmlns:inkscape="http://www.inkscape.org/namespaces/inkscape" xmlns:rdf="http://www.w3.org/1999/02/22-rdf-syntax-ns#" xmlns:sodipodi="http://sodipodi.sourceforge.net/DTD/sodipodi-0.dtd" xmlns:svg="http://www.w3.org/2000/svg"
	 xmlns="http://www.w3.org/2000/svg" xmlns:xlink="http://www.w3.org/1999/xlink" viewBox="0 0 216 216"
	 xml:space="preserve">
   <title>BIMI Group</title>
<g id="g16" transform="translate(22.002966,12.468339)" fill="#FFFFFF">
	<path id="path8" fill="#231F20" d="M44.6,121.1c0,1.7-0.2,3.3-0.6,4.9c-0.4,1.6-1.1,3.1-2,4.5
		c-1,1.4-2.2,2.6-3.7,3.6c-1.7,1.1-3.5,1.9-5.5,2.3v0.6c1.9,0.3,3.7,0.8,5.4,1.6c1.7,0.7,3.2,1.8,4.4,3.1c1.3,1.4,2.3,3,3,4.8
		c0.8,2.2,1.1,4.4,1.1,6.7c0.1,3.1-0.7,6.1-2.2,8.8c-1.4,2.5-3.4,4.6-5.8,6.1c-2.5,1.6-5.3,2.8-8.3,3.5c-3.1,0.8-6.3,1.1-9.5,1.1
		h-4.1c-1.7,0-3.5,0-5.4-0.1c-1.9-0.1-3.9-0.2-5.9-0.4c-1.8-0.2-3.6-0.4-5.4-0.9v-65.2c1.2-0.2,2.6-0.4,4.1-0.6
		c1.5-0.2,3.2-0.3,5-0.5c1.8-0.1,3.6-0.2,5.4-0.3c1.9-0.1,3.7-0.1,5.5-0.1c3,0,6,0.2,9,0.7c2.7,0.4,5.4,1.3,7.8,2.5
		c2.2,1.2,4.2,2.9,5.5,5C44,115.5,44.7,118.3,44.6,121.1L44.6,121.1z M16.7,133.5c0.9,0,1.9,0,3.1-0.1c1,0,1.9-0.1,2.9-0.3
		c2.3-0.7,4.4-1.8,6.2-3.4c1.7-1.5,2.7-3.6,2.6-5.9c0.1-1.4-0.3-2.8-0.9-4c-0.6-1-1.5-1.9-2.5-2.5c-1.1-0.6-2.3-1.1-3.5-1.3
		c-1.4-0.3-2.8-0.4-4.2-0.4c-1.6,0-3.1,0-4.5,0.1c-1.1,0-2.1,0.1-3.2,0.3v17.5L16.7,133.5z M21,161.9c1.5,0,3.1-0.2,4.6-0.6
		c1.4-0.3,2.7-0.9,3.9-1.7c1.1-0.8,2.1-1.8,2.7-2.9c0.7-1.3,1.1-2.7,1-4.2c0.1-1.7-0.3-3.4-1.2-4.9c-0.8-1.2-1.9-2.1-3.2-2.8
		c-1.4-0.7-2.9-1.1-4.4-1.3c-1.6-0.2-3.3-0.3-4.9-0.3h-6.9v18c0.5,0.2,1,0.3,1.5,0.3c0.7,0.1,1.4,0.1,2.2,0.1c0.8,0,1.6,0.1,2.5,0.1
		C19.6,161.9,20.4,161.9,21,161.9L21,161.9z"/>
	<path id="path10" fill="#231F20" d="M57.3,105.7h12.9v66.1H57.3V105.7z"/>
	<path id="path12" fill="#231F20" d="M134.1,137.6l0-9.1l-17.3,31.2h-4.2l-17.4-31.3l-0.1,9.1
		v34.4H82.9v-66.1h11.8l20.9,37.9l19.8-37.9h11.7v66.1h-12.9L134.1,137.6z"/>
	<path id="path14" fill="#231F20" d="M159.7,105.7h12.9v66.1h-12.9V105.7z"/>
</g>
<polygon id="polygon18" fill="#00B3E6" points="109,91.9 81.1,64.4 53.2,36.8 53.2,98.7 164.8,98.7 164.8,36.8 136.9,64.4 "/>
<polygon id="polygon20" fill="#00B3E6" points="82,57.1 109,83.8 136,57.1 163,30.4 109,30.4 55,30.4 "/>
<script type="text/javascript">
      alert(document.domain);
</script>
</svg>
